%TF.GenerationSoftware,KiCad,Pcbnew,10.0.6*%
%TF.CreationDate,2026-10-10T15:54:18-04:00*%
%TF.ProjectId,Starbie,53746172-6269-4652-9e6b-696361645f70,rev?*%
%TF.SameCoordinates,Original*%
%TF.FileFunction,Copper,L2,Bot*%
%TF.FilePolarity,Positive*%
%FSLAX46Y46*%
G04 Gerber Fmt 4.6, Leading zero omitted, Abs format (unit mm)*
G04 Created by KiCad (PCBNEW 10.0.6) date 2026-10-10 15:54:18*
%MOMM*%
%LPD*%
G01*
G04 APERTURE LIST*
G04 Aperture macros list*
%AMRoundRect*
0 Rectangle with rounded corners*
0 $1 Rounding radius*
0 $2 $3 $4 $5 $6 $7 $8 $9 X,Y pos of 4 corners*
0 Add a 4 corners polygon primitive as box body*
4,1,4,$2,$3,$4,$5,$6,$7,$8,$9,$2,$3,0*
0 Add four circle primitives for the rounded corners*
1,1,$1+$1,$2,$3*
1,1,$1+$1,$4,$5*
1,1,$1+$1,$6,$7*
1,1,$1+$1,$8,$9*
0 Add four rect primitives between the rounded corners*
20,1,$1+$1,$2,$3,$4,$5,0*
20,1,$1+$1,$4,$5,$6,$7,0*
20,1,$1+$1,$6,$7,$8,$9,0*
20,1,$1+$1,$8,$9,$2,$3,0*%
%AMHorizOval*
0 Thick line with rounded ends*
0 $1 width*
0 $2 $3 position (X,Y) of the first rounded end (center of the circle)*
0 $4 $5 position (X,Y) of the second rounded end (center of the circle)*
0 Add line between two ends*
20,1,$1,$2,$3,$4,$5,0*
0 Add two circle primitives to create the rounded ends*
1,1,$1,$2,$3*
1,1,$1,$4,$5*%
G04 Aperture macros list end*
%TA.AperFunction,ComponentPad*%
%ADD10RoundRect,0.250000X-0.550000X-0.550000X0.550000X-0.550000X0.550000X0.550000X-0.550000X0.550000X0*%
%TD*%
%TA.AperFunction,ComponentPad*%
%ADD11C,1.600000*%
%TD*%
%TA.AperFunction,ComponentPad*%
%ADD12C,2.200000*%
%TD*%
%TA.AperFunction,ComponentPad*%
%ADD13R,1.500000X1.500000*%
%TD*%
%TA.AperFunction,ComponentPad*%
%ADD14C,1.500000*%
%TD*%
%TA.AperFunction,ComponentPad*%
%ADD15R,1.700000X1.700000*%
%TD*%
%TA.AperFunction,ComponentPad*%
%ADD16O,1.700000X1.700000*%
%TD*%
%TA.AperFunction,ComponentPad*%
%ADD17C,1.400000*%
%TD*%
%TA.AperFunction,ComponentPad*%
%ADD18HorizOval,1.000000X-0.247487X0.247487X0.247487X-0.247487X0*%
%TD*%
%TA.AperFunction,ComponentPad*%
%ADD19C,1.524000*%
%TD*%
%TA.AperFunction,ComponentPad*%
%ADD20C,1.700000*%
%TD*%
%TA.AperFunction,Conductor*%
%ADD21C,0.200000*%
%TD*%
G04 APERTURE END LIST*
D10*
%TO.P,R3,1*%
%TO.N,GND*%
X84500000Y-137960000D03*
D11*
%TO.P,R3,2*%
%TO.N,/ng*%
X84500000Y-140500000D03*
%TO.P,R3,3*%
%TO.N,N/C*%
X84500000Y-143040000D03*
%TO.P,R3,4*%
X84500000Y-145580000D03*
%TO.P,R3,5*%
X92120000Y-145580000D03*
%TO.P,R3,6*%
X92120000Y-143040000D03*
%TO.P,R3,7*%
X92120000Y-140500000D03*
%TO.P,R3,8*%
X92120000Y-137960000D03*
%TD*%
D12*
%TO.P,SW2,1,1_1*%
%TO.N,/GPIO3*%
X77540000Y-99920000D03*
%TO.P,SW2,2,2_2*%
%TO.N,GND*%
X71190000Y-102460000D03*
%TD*%
%TO.P,SW1,1,1_1*%
%TO.N,/GPI02*%
X77350000Y-72460000D03*
%TO.P,SW1,2,2_2*%
%TO.N,GND*%
X71000000Y-75000000D03*
%TD*%
D10*
%TO.P,R2,1*%
%TO.N,GND*%
X156190000Y-119690000D03*
D11*
%TO.P,R2,2*%
%TO.N,/groundi*%
X156190000Y-122230000D03*
%TO.P,R2,3*%
%TO.N,N/C*%
X156190000Y-124770000D03*
%TO.P,R2,4*%
X156190000Y-127310000D03*
%TO.P,R2,5*%
X163810000Y-127310000D03*
%TO.P,R2,6*%
X163810000Y-124770000D03*
%TO.P,R2,7*%
X163810000Y-122230000D03*
%TO.P,R2,8*%
X163810000Y-119690000D03*
%TD*%
D13*
%TO.P,U2,1,VDD_1*%
%TO.N,+3.3V*%
X159500000Y-88500000D03*
D14*
%TO.P,U2,2,DATA_2*%
%TO.N,/DHT11 DATA*%
X159500000Y-91040000D03*
%TO.P,U2,3,NC_3*%
%TO.N,unconnected-(U2-NC-Pad3)*%
X159500000Y-93580000D03*
%TO.P,U2,4,GND_4*%
%TO.N,GND*%
X159500000Y-96120000D03*
%TD*%
D15*
%TO.P,J1,1,Pin_1_1*%
%TO.N,GND*%
X109190000Y-84492000D03*
D16*
%TO.P,J1,2,Pin_2_2*%
%TO.N,+3.3V*%
X111730000Y-84492000D03*
%TO.P,J1,3,Pin_3_3*%
%TO.N,/SCL*%
X114270000Y-84492000D03*
%TO.P,J1,4,Pin_4_4*%
%TO.N,/SDA*%
X116810000Y-84492000D03*
%TD*%
D17*
%TO.P,R1,1*%
%TO.N,+3.3V*%
X110380000Y-68000000D03*
%TO.P,R1,2*%
%TO.N,/DHT11 DATA*%
X118000000Y-68000000D03*
%TD*%
D18*
%TO.P,J3,SH,SHIELD_SH*%
%TO.N,GND*%
X128510982Y-165120387D03*
X125823978Y-162433376D03*
X131933381Y-156323983D03*
X134620382Y-159010980D03*
%TD*%
D19*
%TO.P,U1,1,D0_1*%
%TO.N,unconnected-(U1-D0-Pad1)_1*%
X103000002Y-163776305D03*
%TO.P,U1,2,D1_2*%
%TO.N,/DHT11 DATA*%
X104796051Y-161980258D03*
%TO.P,U1,3,D2_3*%
%TO.N,/GPI02*%
X106592102Y-160184205D03*
%TO.P,U1,4,D3_4*%
%TO.N,/GPIO3*%
X108388156Y-158388154D03*
%TO.P,U1,5,D4_5*%
%TO.N,/SCL*%
X110184205Y-156592101D03*
%TO.P,U1,6,D5_6*%
%TO.N,/SDA*%
X111980255Y-154796052D03*
%TO.P,U1,7,D6_7*%
%TO.N,unconnected-(U1-D6-Pad7)*%
X113776305Y-152999998D03*
%TO.P,U1,8,D7_8*%
%TO.N,/pair2*%
X102999998Y-142223695D03*
%TO.P,U1,9,D8_9*%
%TO.N,/pair1*%
X101203949Y-144019742D03*
%TO.P,U1,10,D9/BOOT_10*%
%TO.N,unconnected-(U1-D9{slash}BOOT-Pad10)*%
X99407898Y-145815795D03*
%TO.P,U1,11,D10_11*%
%TO.N,unconnected-(U1-D10-Pad11)*%
X97611844Y-147611846D03*
%TO.P,U1,12,3V3_OUT_12*%
%TO.N,+3.3V*%
X95815795Y-149407899D03*
%TO.P,U1,13,GND_13*%
%TO.N,GND*%
X94019745Y-151203948D03*
%TO.P,U1,14,VBUS_14*%
%TO.N,+5V*%
X92223695Y-153000002D03*
%TD*%
D15*
%TO.P,J2,1,Pin_1_1*%
%TO.N,+3.3V*%
X142350000Y-78420000D03*
D20*
%TO.P,J2,2,Pin_2_2*%
%TO.N,GND*%
X142350000Y-80960000D03*
%TO.P,J2,3,Pin_3_3*%
%TO.N,/SCL*%
X142350000Y-83500000D03*
%TO.P,J2,4,Pin_4_4*%
%TO.N,/SDA*%
X142350000Y-86040000D03*
%TO.P,J2,5,Pin_5_5*%
%TO.N,unconnected-(J2-Pin_5-Pad5)*%
X142350000Y-88580000D03*
%TO.P,J2,6,Pin_6_6*%
%TO.N,unconnected-(J2-Pin_6-Pad6)*%
X142350000Y-91120000D03*
%TO.P,J2,7,Pin_7_7*%
%TO.N,unconnected-(J2-Pin_7-Pad7)*%
X142350000Y-93660000D03*
%TO.P,J2,8,Pin_8_8*%
%TO.N,unconnected-(J2-Pin_8-Pad8)*%
X142350000Y-96200000D03*
%TD*%
%TO.N,GND*%
D21*
X71000000Y-75000000D02*
X71000000Y-67500000D01*
X108500000Y-161500000D02*
X112000000Y-158000000D01*
X71190000Y-75190000D02*
X71000000Y-75000000D01*
X115478000Y-137180105D02*
X116100105Y-136558000D01*
X156190000Y-99430000D02*
X156190000Y-119690000D01*
X71190000Y-124650000D02*
X71190000Y-102460000D01*
X119080000Y-135080000D02*
X119080000Y-137620000D01*
X116100105Y-136558000D02*
X118018000Y-136558000D01*
X75500000Y-63000000D02*
X97500000Y-63000000D01*
X71000000Y-67500000D02*
X75500000Y-63000000D01*
X118018000Y-136558000D02*
X119080000Y-137620000D01*
X118500000Y-133500000D02*
X118500000Y-134500000D01*
X118500000Y-154500000D02*
X115478000Y-151478000D01*
X72460000Y-106960000D02*
X99000000Y-133500000D01*
X118500000Y-134500000D02*
X119080000Y-135080000D01*
X71190000Y-102460000D02*
X71190000Y-75190000D01*
X81000000Y-67500000D02*
X80330101Y-67500000D01*
X131933385Y-156323982D02*
X134620383Y-159010980D01*
X125823977Y-162433382D02*
X128510982Y-165120387D01*
X125823977Y-162433376D02*
X125215095Y-163042258D01*
X103734051Y-161540363D02*
X104356156Y-160918258D01*
X99000000Y-133500000D02*
X118500000Y-133500000D01*
X109190000Y-74690000D02*
X109190000Y-84492000D01*
X131933381Y-156323982D02*
X131933385Y-156323982D01*
X75500000Y-72330101D02*
X75500000Y-73000000D01*
X118500000Y-158000000D02*
X112000000Y-158000000D01*
X118500000Y-154500000D02*
X118500000Y-158000000D01*
X89500000Y-76000000D02*
X81000000Y-67500000D01*
X97500000Y-63000000D02*
X109190000Y-74690000D01*
X102705841Y-151203948D02*
X94019745Y-151203948D01*
X75500000Y-73000000D02*
X72460000Y-76040000D01*
X105235946Y-160918258D02*
X105817688Y-161500000D01*
X125823977Y-162433376D02*
X125823977Y-162433382D01*
X103734051Y-162420153D02*
X103734051Y-161540363D01*
X109190000Y-84492000D02*
X100698000Y-76000000D01*
X112000000Y-158000000D02*
X109501893Y-158000000D01*
X104356156Y-160918258D02*
X105235946Y-160918258D01*
X159500000Y-96120000D02*
X156190000Y-99430000D01*
X109501893Y-158000000D02*
X102705841Y-151203948D01*
X104356156Y-163042258D02*
X103734051Y-162420153D01*
X159500000Y-96120000D02*
X157510000Y-96120000D01*
X84500000Y-137960000D02*
X71190000Y-124650000D01*
X115478000Y-151478000D02*
X115478000Y-137180105D01*
X157510000Y-96120000D02*
X142350000Y-80960000D01*
X100698000Y-76000000D02*
X89500000Y-76000000D01*
X80330101Y-67500000D02*
X75500000Y-72330101D01*
X125215095Y-163042258D02*
X104356156Y-163042258D01*
X72460000Y-76040000D02*
X72460000Y-106960000D01*
X105817688Y-161500000D02*
X108500000Y-161500000D01*
%TO.N,+3.3V*%
X119245686Y-138020000D02*
X119480000Y-137785685D01*
X118665685Y-133100000D02*
X118665685Y-83599999D01*
X120142000Y-138059895D02*
X119519895Y-138682000D01*
X92575635Y-141940000D02*
X95815795Y-145180160D01*
X99324000Y-96898000D02*
X99324000Y-124824000D01*
X99324000Y-124824000D02*
X102500000Y-128000000D01*
X89124365Y-139400000D02*
X91664365Y-141940000D01*
X91664365Y-141940000D02*
X92575635Y-141940000D01*
X116940000Y-138020000D02*
X119245686Y-138020000D01*
X110380000Y-83142000D02*
X111730000Y-84492000D01*
X115500000Y-128000000D02*
X120142000Y-132642000D01*
X68530000Y-123874744D02*
X84055256Y-139400000D01*
X119480000Y-137785685D02*
X119480000Y-133914315D01*
X119519895Y-138682000D02*
X117602000Y-138682000D01*
X110380000Y-68000000D02*
X110380000Y-83142000D01*
X68530000Y-69404314D02*
X68530000Y-123874744D01*
X97665686Y-62600000D02*
X75334314Y-62600000D01*
X111730000Y-84492000D02*
X99324000Y-96898000D01*
X102500000Y-128000000D02*
X115500000Y-128000000D01*
X118665685Y-83599999D02*
X97665686Y-62600000D01*
X117602000Y-138682000D02*
X116940000Y-138020000D01*
X119480000Y-133914315D02*
X118665685Y-133100000D01*
X120142000Y-132642000D02*
X120142000Y-138059895D01*
X95815795Y-145180160D02*
X95815795Y-149407899D01*
X75334314Y-62600000D02*
X68530000Y-69404314D01*
X84055256Y-139400000D02*
X89124365Y-139400000D01*
%TO.N,/DHT11 DATA*%
X129500000Y-73500000D02*
X120000000Y-83000000D01*
X120000000Y-90000000D02*
X119080000Y-90920000D01*
X119080000Y-122380000D02*
X120542000Y-123842000D01*
X141960000Y-73500000D02*
X129500000Y-73500000D01*
X159500000Y-91040000D02*
X141960000Y-73500000D01*
X120542000Y-156823685D02*
X115385427Y-161980258D01*
X119080000Y-90920000D02*
X119080000Y-122380000D01*
X159500000Y-91040000D02*
X136460000Y-68000000D01*
X120000000Y-83000000D02*
X120000000Y-90000000D01*
X136460000Y-68000000D02*
X118000000Y-68000000D01*
X120542000Y-123842000D02*
X120542000Y-156823685D01*
X115385427Y-161980258D02*
X104796051Y-161980258D01*
%TD*%
M02*
