%TF.GenerationSoftware,KiCad,Pcbnew,10.0.6*%
%TF.CreationDate,2026-10-10T12:57:32-04:00*%
%TF.ProjectId,Starbie,53746172-6269-4652-9e6b-696361645f70,rev?*%
%TF.SameCoordinates,Original*%
%TF.FileFunction,Legend,Top*%
%TF.FilePolarity,Positive*%
%FSLAX46Y46*%
G04 Gerber Fmt 4.6, Leading zero omitted, Abs format (unit mm)*
G04 Created by KiCad (PCBNEW 10.0.6) date 2026-10-10 12:57:32*
%MOMM*%
%LPD*%
G01*
G04 APERTURE LIST*
%ADD10C,0.150000*%
%ADD11C,0.300000*%
%ADD12C,0.101600*%
%ADD13C,0.120000*%
%ADD14C,0.127000*%
%ADD15C,0.100000*%
%ADD16C,0.504003*%
%ADD17C,0.504000*%
G04 APERTURE END LIST*
D10*
X126666485Y-157637890D02*
X127171561Y-158142966D01*
X127171561Y-158142966D02*
X127238905Y-158277653D01*
X127238905Y-158277653D02*
X127238905Y-158412340D01*
X127238905Y-158412340D02*
X127171561Y-158547027D01*
X127171561Y-158547027D02*
X127104218Y-158614371D01*
X126935859Y-157368516D02*
X127373592Y-156930783D01*
X127373592Y-156930783D02*
X127407264Y-157435859D01*
X127407264Y-157435859D02*
X127508279Y-157334844D01*
X127508279Y-157334844D02*
X127609294Y-157301172D01*
X127609294Y-157301172D02*
X127676638Y-157301172D01*
X127676638Y-157301172D02*
X127777653Y-157334844D01*
X127777653Y-157334844D02*
X127946012Y-157503203D01*
X127946012Y-157503203D02*
X127979683Y-157604218D01*
X127979683Y-157604218D02*
X127979683Y-157671561D01*
X127979683Y-157671561D02*
X127946012Y-157772577D01*
X127946012Y-157772577D02*
X127743981Y-157974607D01*
X127743981Y-157974607D02*
X127642966Y-158008279D01*
X127642966Y-158008279D02*
X127575622Y-158008279D01*
X112438066Y-94818019D02*
X112438066Y-95532304D01*
X112438066Y-95532304D02*
X112390447Y-95675161D01*
X112390447Y-95675161D02*
X112295209Y-95770400D01*
X112295209Y-95770400D02*
X112152352Y-95818019D01*
X112152352Y-95818019D02*
X112057114Y-95818019D01*
X113438066Y-95818019D02*
X112866638Y-95818019D01*
X113152352Y-95818019D02*
X113152352Y-94818019D01*
X113152352Y-94818019D02*
X113057114Y-94960876D01*
X113057114Y-94960876D02*
X112961876Y-95056114D01*
X112961876Y-95056114D02*
X112866638Y-95103733D01*
X116087000Y-87058200D02*
X116187000Y-87105819D01*
X116187000Y-87105819D02*
X116353667Y-87105819D01*
X116353667Y-87105819D02*
X116420333Y-87058200D01*
X116420333Y-87058200D02*
X116453667Y-87010580D01*
X116453667Y-87010580D02*
X116487000Y-86915342D01*
X116487000Y-86915342D02*
X116487000Y-86820104D01*
X116487000Y-86820104D02*
X116453667Y-86724866D01*
X116453667Y-86724866D02*
X116420333Y-86677247D01*
X116420333Y-86677247D02*
X116353667Y-86629628D01*
X116353667Y-86629628D02*
X116220333Y-86582009D01*
X116220333Y-86582009D02*
X116153667Y-86534390D01*
X116153667Y-86534390D02*
X116120333Y-86486771D01*
X116120333Y-86486771D02*
X116087000Y-86391533D01*
X116087000Y-86391533D02*
X116087000Y-86296295D01*
X116087000Y-86296295D02*
X116120333Y-86201057D01*
X116120333Y-86201057D02*
X116153667Y-86153438D01*
X116153667Y-86153438D02*
X116220333Y-86105819D01*
X116220333Y-86105819D02*
X116387000Y-86105819D01*
X116387000Y-86105819D02*
X116487000Y-86153438D01*
X116787000Y-87105819D02*
X116787000Y-86105819D01*
X116787000Y-86105819D02*
X116953667Y-86105819D01*
X116953667Y-86105819D02*
X117053667Y-86153438D01*
X117053667Y-86153438D02*
X117120334Y-86248676D01*
X117120334Y-86248676D02*
X117153667Y-86343914D01*
X117153667Y-86343914D02*
X117187000Y-86534390D01*
X117187000Y-86534390D02*
X117187000Y-86677247D01*
X117187000Y-86677247D02*
X117153667Y-86867723D01*
X117153667Y-86867723D02*
X117120334Y-86962961D01*
X117120334Y-86962961D02*
X117053667Y-87058200D01*
X117053667Y-87058200D02*
X116953667Y-87105819D01*
X116953667Y-87105819D02*
X116787000Y-87105819D01*
X117453667Y-86820104D02*
X117787000Y-86820104D01*
X117387000Y-87105819D02*
X117620334Y-86105819D01*
X117620334Y-86105819D02*
X117853667Y-87105819D01*
X113436666Y-87058200D02*
X113536666Y-87105819D01*
X113536666Y-87105819D02*
X113703333Y-87105819D01*
X113703333Y-87105819D02*
X113769999Y-87058200D01*
X113769999Y-87058200D02*
X113803333Y-87010580D01*
X113803333Y-87010580D02*
X113836666Y-86915342D01*
X113836666Y-86915342D02*
X113836666Y-86820104D01*
X113836666Y-86820104D02*
X113803333Y-86724866D01*
X113803333Y-86724866D02*
X113769999Y-86677247D01*
X113769999Y-86677247D02*
X113703333Y-86629628D01*
X113703333Y-86629628D02*
X113569999Y-86582009D01*
X113569999Y-86582009D02*
X113503333Y-86534390D01*
X113503333Y-86534390D02*
X113469999Y-86486771D01*
X113469999Y-86486771D02*
X113436666Y-86391533D01*
X113436666Y-86391533D02*
X113436666Y-86296295D01*
X113436666Y-86296295D02*
X113469999Y-86201057D01*
X113469999Y-86201057D02*
X113503333Y-86153438D01*
X113503333Y-86153438D02*
X113569999Y-86105819D01*
X113569999Y-86105819D02*
X113736666Y-86105819D01*
X113736666Y-86105819D02*
X113836666Y-86153438D01*
X114536666Y-87010580D02*
X114503333Y-87058200D01*
X114503333Y-87058200D02*
X114403333Y-87105819D01*
X114403333Y-87105819D02*
X114336666Y-87105819D01*
X114336666Y-87105819D02*
X114236666Y-87058200D01*
X114236666Y-87058200D02*
X114170000Y-86962961D01*
X114170000Y-86962961D02*
X114136666Y-86867723D01*
X114136666Y-86867723D02*
X114103333Y-86677247D01*
X114103333Y-86677247D02*
X114103333Y-86534390D01*
X114103333Y-86534390D02*
X114136666Y-86343914D01*
X114136666Y-86343914D02*
X114170000Y-86248676D01*
X114170000Y-86248676D02*
X114236666Y-86153438D01*
X114236666Y-86153438D02*
X114336666Y-86105819D01*
X114336666Y-86105819D02*
X114403333Y-86105819D01*
X114403333Y-86105819D02*
X114503333Y-86153438D01*
X114503333Y-86153438D02*
X114536666Y-86201057D01*
X115170000Y-87105819D02*
X114836666Y-87105819D01*
X114836666Y-87105819D02*
X114836666Y-86105819D01*
X110796666Y-86105819D02*
X111030000Y-87105819D01*
X111030000Y-87105819D02*
X111263333Y-86105819D01*
X111496666Y-87105819D02*
X111496666Y-86105819D01*
X111496666Y-86105819D02*
X111663333Y-86105819D01*
X111663333Y-86105819D02*
X111763333Y-86153438D01*
X111763333Y-86153438D02*
X111830000Y-86248676D01*
X111830000Y-86248676D02*
X111863333Y-86343914D01*
X111863333Y-86343914D02*
X111896666Y-86534390D01*
X111896666Y-86534390D02*
X111896666Y-86677247D01*
X111896666Y-86677247D02*
X111863333Y-86867723D01*
X111863333Y-86867723D02*
X111830000Y-86962961D01*
X111830000Y-86962961D02*
X111763333Y-87058200D01*
X111763333Y-87058200D02*
X111663333Y-87105819D01*
X111663333Y-87105819D02*
X111496666Y-87105819D01*
X112196666Y-87105819D02*
X112196666Y-86105819D01*
X112196666Y-86105819D02*
X112363333Y-86105819D01*
X112363333Y-86105819D02*
X112463333Y-86153438D01*
X112463333Y-86153438D02*
X112530000Y-86248676D01*
X112530000Y-86248676D02*
X112563333Y-86343914D01*
X112563333Y-86343914D02*
X112596666Y-86534390D01*
X112596666Y-86534390D02*
X112596666Y-86677247D01*
X112596666Y-86677247D02*
X112563333Y-86867723D01*
X112563333Y-86867723D02*
X112530000Y-86962961D01*
X112530000Y-86962961D02*
X112463333Y-87058200D01*
X112463333Y-87058200D02*
X112363333Y-87105819D01*
X112363333Y-87105819D02*
X112196666Y-87105819D01*
X108656667Y-86153438D02*
X108590000Y-86105819D01*
X108590000Y-86105819D02*
X108490000Y-86105819D01*
X108490000Y-86105819D02*
X108390000Y-86153438D01*
X108390000Y-86153438D02*
X108323334Y-86248676D01*
X108323334Y-86248676D02*
X108290000Y-86343914D01*
X108290000Y-86343914D02*
X108256667Y-86534390D01*
X108256667Y-86534390D02*
X108256667Y-86677247D01*
X108256667Y-86677247D02*
X108290000Y-86867723D01*
X108290000Y-86867723D02*
X108323334Y-86962961D01*
X108323334Y-86962961D02*
X108390000Y-87058200D01*
X108390000Y-87058200D02*
X108490000Y-87105819D01*
X108490000Y-87105819D02*
X108556667Y-87105819D01*
X108556667Y-87105819D02*
X108656667Y-87058200D01*
X108656667Y-87058200D02*
X108690000Y-87010580D01*
X108690000Y-87010580D02*
X108690000Y-86677247D01*
X108690000Y-86677247D02*
X108556667Y-86677247D01*
X108990000Y-87105819D02*
X108990000Y-86105819D01*
X108990000Y-86105819D02*
X109390000Y-87105819D01*
X109390000Y-87105819D02*
X109390000Y-86105819D01*
X109723333Y-87105819D02*
X109723333Y-86105819D01*
X109723333Y-86105819D02*
X109890000Y-86105819D01*
X109890000Y-86105819D02*
X109990000Y-86153438D01*
X109990000Y-86153438D02*
X110056667Y-86248676D01*
X110056667Y-86248676D02*
X110090000Y-86343914D01*
X110090000Y-86343914D02*
X110123333Y-86534390D01*
X110123333Y-86534390D02*
X110123333Y-86677247D01*
X110123333Y-86677247D02*
X110090000Y-86867723D01*
X110090000Y-86867723D02*
X110056667Y-86962961D01*
X110056667Y-86962961D02*
X109990000Y-87058200D01*
X109990000Y-87058200D02*
X109890000Y-87105819D01*
X109890000Y-87105819D02*
X109723333Y-87105819D01*
D11*
X83142857Y-130035471D02*
X83214286Y-130106900D01*
X83214286Y-130106900D02*
X83142857Y-130178328D01*
X83142857Y-130178328D02*
X83071429Y-130106900D01*
X83071429Y-130106900D02*
X83142857Y-130035471D01*
X83142857Y-130035471D02*
X83142857Y-130178328D01*
X83142857Y-129249757D02*
X83214286Y-129321185D01*
X83214286Y-129321185D02*
X83142857Y-129392614D01*
X83142857Y-129392614D02*
X83071429Y-129321185D01*
X83071429Y-129321185D02*
X83142857Y-129249757D01*
X83142857Y-129249757D02*
X83142857Y-129392614D01*
X83714286Y-128678328D02*
X84642858Y-128678328D01*
X84642858Y-128678328D02*
X84142858Y-129249757D01*
X84142858Y-129249757D02*
X84357143Y-129249757D01*
X84357143Y-129249757D02*
X84500001Y-129321185D01*
X84500001Y-129321185D02*
X84571429Y-129392614D01*
X84571429Y-129392614D02*
X84642858Y-129535471D01*
X84642858Y-129535471D02*
X84642858Y-129892614D01*
X84642858Y-129892614D02*
X84571429Y-130035471D01*
X84571429Y-130035471D02*
X84500001Y-130106900D01*
X84500001Y-130106900D02*
X84357143Y-130178328D01*
X84357143Y-130178328D02*
X83928572Y-130178328D01*
X83928572Y-130178328D02*
X83785715Y-130106900D01*
X83785715Y-130106900D02*
X83714286Y-130035471D01*
X85928572Y-130106900D02*
X85785714Y-130178328D01*
X85785714Y-130178328D02*
X85500000Y-130178328D01*
X85500000Y-130178328D02*
X85357143Y-130106900D01*
X85357143Y-130106900D02*
X85285714Y-130035471D01*
X85285714Y-130035471D02*
X85214286Y-129892614D01*
X85214286Y-129892614D02*
X85214286Y-129464042D01*
X85214286Y-129464042D02*
X85285714Y-129321185D01*
X85285714Y-129321185D02*
X85357143Y-129249757D01*
X85357143Y-129249757D02*
X85500000Y-129178328D01*
X85500000Y-129178328D02*
X85785714Y-129178328D01*
X85785714Y-129178328D02*
X85928572Y-129249757D01*
X145642857Y-138535471D02*
X145714286Y-138606900D01*
X145714286Y-138606900D02*
X145642857Y-138678328D01*
X145642857Y-138678328D02*
X145571429Y-138606900D01*
X145571429Y-138606900D02*
X145642857Y-138535471D01*
X145642857Y-138535471D02*
X145642857Y-138678328D01*
X145642857Y-137749757D02*
X145714286Y-137821185D01*
X145714286Y-137821185D02*
X145642857Y-137892614D01*
X145642857Y-137892614D02*
X145571429Y-137821185D01*
X145571429Y-137821185D02*
X145642857Y-137749757D01*
X145642857Y-137749757D02*
X145642857Y-137892614D01*
X146214286Y-137178328D02*
X147142858Y-137178328D01*
X147142858Y-137178328D02*
X146642858Y-137749757D01*
X146642858Y-137749757D02*
X146857143Y-137749757D01*
X146857143Y-137749757D02*
X147000001Y-137821185D01*
X147000001Y-137821185D02*
X147071429Y-137892614D01*
X147071429Y-137892614D02*
X147142858Y-138035471D01*
X147142858Y-138035471D02*
X147142858Y-138392614D01*
X147142858Y-138392614D02*
X147071429Y-138535471D01*
X147071429Y-138535471D02*
X147000001Y-138606900D01*
X147000001Y-138606900D02*
X146857143Y-138678328D01*
X146857143Y-138678328D02*
X146428572Y-138678328D01*
X146428572Y-138678328D02*
X146285715Y-138606900D01*
X146285715Y-138606900D02*
X146214286Y-138535471D01*
X148428572Y-138606900D02*
X148285714Y-138678328D01*
X148285714Y-138678328D02*
X148000000Y-138678328D01*
X148000000Y-138678328D02*
X147857143Y-138606900D01*
X147857143Y-138606900D02*
X147785714Y-138535471D01*
X147785714Y-138535471D02*
X147714286Y-138392614D01*
X147714286Y-138392614D02*
X147714286Y-137964042D01*
X147714286Y-137964042D02*
X147785714Y-137821185D01*
X147785714Y-137821185D02*
X147857143Y-137749757D01*
X147857143Y-137749757D02*
X148000000Y-137678328D01*
X148000000Y-137678328D02*
X148285714Y-137678328D01*
X148285714Y-137678328D02*
X148428572Y-137749757D01*
X166840740Y-73412720D02*
X166912169Y-73484149D01*
X166912169Y-73484149D02*
X166840740Y-73555577D01*
X166840740Y-73555577D02*
X166769312Y-73484149D01*
X166769312Y-73484149D02*
X166840740Y-73412720D01*
X166840740Y-73412720D02*
X166840740Y-73555577D01*
X166840740Y-72627006D02*
X166912169Y-72698434D01*
X166912169Y-72698434D02*
X166840740Y-72769863D01*
X166840740Y-72769863D02*
X166769312Y-72698434D01*
X166769312Y-72698434D02*
X166840740Y-72627006D01*
X166840740Y-72627006D02*
X166840740Y-72769863D01*
X167412169Y-72055577D02*
X168340741Y-72055577D01*
X168340741Y-72055577D02*
X167840741Y-72627006D01*
X167840741Y-72627006D02*
X168055026Y-72627006D01*
X168055026Y-72627006D02*
X168197884Y-72698434D01*
X168197884Y-72698434D02*
X168269312Y-72769863D01*
X168269312Y-72769863D02*
X168340741Y-72912720D01*
X168340741Y-72912720D02*
X168340741Y-73269863D01*
X168340741Y-73269863D02*
X168269312Y-73412720D01*
X168269312Y-73412720D02*
X168197884Y-73484149D01*
X168197884Y-73484149D02*
X168055026Y-73555577D01*
X168055026Y-73555577D02*
X167626455Y-73555577D01*
X167626455Y-73555577D02*
X167483598Y-73484149D01*
X167483598Y-73484149D02*
X167412169Y-73412720D01*
X162722726Y-72264085D02*
X162794155Y-72335514D01*
X162794155Y-72335514D02*
X162722726Y-72406942D01*
X162722726Y-72406942D02*
X162651298Y-72335514D01*
X162651298Y-72335514D02*
X162722726Y-72264085D01*
X162722726Y-72264085D02*
X162722726Y-72406942D01*
X162722726Y-71478371D02*
X162794155Y-71549799D01*
X162794155Y-71549799D02*
X162722726Y-71621228D01*
X162722726Y-71621228D02*
X162651298Y-71549799D01*
X162651298Y-71549799D02*
X162722726Y-71478371D01*
X162722726Y-71478371D02*
X162722726Y-71621228D01*
X163294155Y-70906942D02*
X164222727Y-70906942D01*
X164222727Y-70906942D02*
X163722727Y-71478371D01*
X163722727Y-71478371D02*
X163937012Y-71478371D01*
X163937012Y-71478371D02*
X164079870Y-71549799D01*
X164079870Y-71549799D02*
X164151298Y-71621228D01*
X164151298Y-71621228D02*
X164222727Y-71764085D01*
X164222727Y-71764085D02*
X164222727Y-72121228D01*
X164222727Y-72121228D02*
X164151298Y-72264085D01*
X164151298Y-72264085D02*
X164079870Y-72335514D01*
X164079870Y-72335514D02*
X163937012Y-72406942D01*
X163937012Y-72406942D02*
X163508441Y-72406942D01*
X163508441Y-72406942D02*
X163365584Y-72335514D01*
X163365584Y-72335514D02*
X163294155Y-72264085D01*
X146285714Y-111035471D02*
X146357143Y-111106900D01*
X146357143Y-111106900D02*
X146285714Y-111178328D01*
X146285714Y-111178328D02*
X146214286Y-111106900D01*
X146214286Y-111106900D02*
X146285714Y-111035471D01*
X146285714Y-111035471D02*
X146285714Y-111178328D01*
X146285714Y-110249757D02*
X146357143Y-110321185D01*
X146357143Y-110321185D02*
X146285714Y-110392614D01*
X146285714Y-110392614D02*
X146214286Y-110321185D01*
X146214286Y-110321185D02*
X146285714Y-110249757D01*
X146285714Y-110249757D02*
X146285714Y-110392614D01*
X146857143Y-109678328D02*
X147785715Y-109678328D01*
X147785715Y-109678328D02*
X147285715Y-110249757D01*
X147285715Y-110249757D02*
X147500000Y-110249757D01*
X147500000Y-110249757D02*
X147642858Y-110321185D01*
X147642858Y-110321185D02*
X147714286Y-110392614D01*
X147714286Y-110392614D02*
X147785715Y-110535471D01*
X147785715Y-110535471D02*
X147785715Y-110892614D01*
X147785715Y-110892614D02*
X147714286Y-111035471D01*
X147714286Y-111035471D02*
X147642858Y-111106900D01*
X147642858Y-111106900D02*
X147500000Y-111178328D01*
X147500000Y-111178328D02*
X147071429Y-111178328D01*
X147071429Y-111178328D02*
X146928572Y-111106900D01*
X146928572Y-111106900D02*
X146857143Y-111035471D01*
X149977096Y-110429727D02*
X150048525Y-110501156D01*
X150048525Y-110501156D02*
X149977096Y-110572584D01*
X149977096Y-110572584D02*
X149905668Y-110501156D01*
X149905668Y-110501156D02*
X149977096Y-110429727D01*
X149977096Y-110429727D02*
X149977096Y-110572584D01*
X149977096Y-109644013D02*
X150048525Y-109715441D01*
X150048525Y-109715441D02*
X149977096Y-109786870D01*
X149977096Y-109786870D02*
X149905668Y-109715441D01*
X149905668Y-109715441D02*
X149977096Y-109644013D01*
X149977096Y-109644013D02*
X149977096Y-109786870D01*
X150548525Y-109072584D02*
X151477097Y-109072584D01*
X151477097Y-109072584D02*
X150977097Y-109644013D01*
X150977097Y-109644013D02*
X151191382Y-109644013D01*
X151191382Y-109644013D02*
X151334240Y-109715441D01*
X151334240Y-109715441D02*
X151405668Y-109786870D01*
X151405668Y-109786870D02*
X151477097Y-109929727D01*
X151477097Y-109929727D02*
X151477097Y-110286870D01*
X151477097Y-110286870D02*
X151405668Y-110429727D01*
X151405668Y-110429727D02*
X151334240Y-110501156D01*
X151334240Y-110501156D02*
X151191382Y-110572584D01*
X151191382Y-110572584D02*
X150762811Y-110572584D01*
X150762811Y-110572584D02*
X150619954Y-110501156D01*
X150619954Y-110501156D02*
X150548525Y-110429727D01*
D10*
X88143333Y-136084819D02*
X87810000Y-135608628D01*
X87571905Y-136084819D02*
X87571905Y-135084819D01*
X87571905Y-135084819D02*
X87952857Y-135084819D01*
X87952857Y-135084819D02*
X88048095Y-135132438D01*
X88048095Y-135132438D02*
X88095714Y-135180057D01*
X88095714Y-135180057D02*
X88143333Y-135275295D01*
X88143333Y-135275295D02*
X88143333Y-135418152D01*
X88143333Y-135418152D02*
X88095714Y-135513390D01*
X88095714Y-135513390D02*
X88048095Y-135561009D01*
X88048095Y-135561009D02*
X87952857Y-135608628D01*
X87952857Y-135608628D02*
X87571905Y-135608628D01*
X88476667Y-135084819D02*
X89095714Y-135084819D01*
X89095714Y-135084819D02*
X88762381Y-135465771D01*
X88762381Y-135465771D02*
X88905238Y-135465771D01*
X88905238Y-135465771D02*
X89000476Y-135513390D01*
X89000476Y-135513390D02*
X89048095Y-135561009D01*
X89048095Y-135561009D02*
X89095714Y-135656247D01*
X89095714Y-135656247D02*
X89095714Y-135894342D01*
X89095714Y-135894342D02*
X89048095Y-135989580D01*
X89048095Y-135989580D02*
X89000476Y-136037200D01*
X89000476Y-136037200D02*
X88905238Y-136084819D01*
X88905238Y-136084819D02*
X88619524Y-136084819D01*
X88619524Y-136084819D02*
X88524286Y-136037200D01*
X88524286Y-136037200D02*
X88476667Y-135989580D01*
X159833333Y-117814819D02*
X159500000Y-117338628D01*
X159261905Y-117814819D02*
X159261905Y-116814819D01*
X159261905Y-116814819D02*
X159642857Y-116814819D01*
X159642857Y-116814819D02*
X159738095Y-116862438D01*
X159738095Y-116862438D02*
X159785714Y-116910057D01*
X159785714Y-116910057D02*
X159833333Y-117005295D01*
X159833333Y-117005295D02*
X159833333Y-117148152D01*
X159833333Y-117148152D02*
X159785714Y-117243390D01*
X159785714Y-117243390D02*
X159738095Y-117291009D01*
X159738095Y-117291009D02*
X159642857Y-117338628D01*
X159642857Y-117338628D02*
X159261905Y-117338628D01*
X160214286Y-116910057D02*
X160261905Y-116862438D01*
X160261905Y-116862438D02*
X160357143Y-116814819D01*
X160357143Y-116814819D02*
X160595238Y-116814819D01*
X160595238Y-116814819D02*
X160690476Y-116862438D01*
X160690476Y-116862438D02*
X160738095Y-116910057D01*
X160738095Y-116910057D02*
X160785714Y-117005295D01*
X160785714Y-117005295D02*
X160785714Y-117100533D01*
X160785714Y-117100533D02*
X160738095Y-117243390D01*
X160738095Y-117243390D02*
X160166667Y-117814819D01*
X160166667Y-117814819D02*
X160785714Y-117814819D01*
X73666667Y-97533200D02*
X73809524Y-97580819D01*
X73809524Y-97580819D02*
X74047619Y-97580819D01*
X74047619Y-97580819D02*
X74142857Y-97533200D01*
X74142857Y-97533200D02*
X74190476Y-97485580D01*
X74190476Y-97485580D02*
X74238095Y-97390342D01*
X74238095Y-97390342D02*
X74238095Y-97295104D01*
X74238095Y-97295104D02*
X74190476Y-97199866D01*
X74190476Y-97199866D02*
X74142857Y-97152247D01*
X74142857Y-97152247D02*
X74047619Y-97104628D01*
X74047619Y-97104628D02*
X73857143Y-97057009D01*
X73857143Y-97057009D02*
X73761905Y-97009390D01*
X73761905Y-97009390D02*
X73714286Y-96961771D01*
X73714286Y-96961771D02*
X73666667Y-96866533D01*
X73666667Y-96866533D02*
X73666667Y-96771295D01*
X73666667Y-96771295D02*
X73714286Y-96676057D01*
X73714286Y-96676057D02*
X73761905Y-96628438D01*
X73761905Y-96628438D02*
X73857143Y-96580819D01*
X73857143Y-96580819D02*
X74095238Y-96580819D01*
X74095238Y-96580819D02*
X74238095Y-96628438D01*
X74571429Y-96580819D02*
X74809524Y-97580819D01*
X74809524Y-97580819D02*
X75000000Y-96866533D01*
X75000000Y-96866533D02*
X75190476Y-97580819D01*
X75190476Y-97580819D02*
X75428572Y-96580819D01*
X75761905Y-96676057D02*
X75809524Y-96628438D01*
X75809524Y-96628438D02*
X75904762Y-96580819D01*
X75904762Y-96580819D02*
X76142857Y-96580819D01*
X76142857Y-96580819D02*
X76238095Y-96628438D01*
X76238095Y-96628438D02*
X76285714Y-96676057D01*
X76285714Y-96676057D02*
X76333333Y-96771295D01*
X76333333Y-96771295D02*
X76333333Y-96866533D01*
X76333333Y-96866533D02*
X76285714Y-97009390D01*
X76285714Y-97009390D02*
X75714286Y-97580819D01*
X75714286Y-97580819D02*
X76333333Y-97580819D01*
X73476667Y-70073200D02*
X73619524Y-70120819D01*
X73619524Y-70120819D02*
X73857619Y-70120819D01*
X73857619Y-70120819D02*
X73952857Y-70073200D01*
X73952857Y-70073200D02*
X74000476Y-70025580D01*
X74000476Y-70025580D02*
X74048095Y-69930342D01*
X74048095Y-69930342D02*
X74048095Y-69835104D01*
X74048095Y-69835104D02*
X74000476Y-69739866D01*
X74000476Y-69739866D02*
X73952857Y-69692247D01*
X73952857Y-69692247D02*
X73857619Y-69644628D01*
X73857619Y-69644628D02*
X73667143Y-69597009D01*
X73667143Y-69597009D02*
X73571905Y-69549390D01*
X73571905Y-69549390D02*
X73524286Y-69501771D01*
X73524286Y-69501771D02*
X73476667Y-69406533D01*
X73476667Y-69406533D02*
X73476667Y-69311295D01*
X73476667Y-69311295D02*
X73524286Y-69216057D01*
X73524286Y-69216057D02*
X73571905Y-69168438D01*
X73571905Y-69168438D02*
X73667143Y-69120819D01*
X73667143Y-69120819D02*
X73905238Y-69120819D01*
X73905238Y-69120819D02*
X74048095Y-69168438D01*
X74381429Y-69120819D02*
X74619524Y-70120819D01*
X74619524Y-70120819D02*
X74810000Y-69406533D01*
X74810000Y-69406533D02*
X75000476Y-70120819D01*
X75000476Y-70120819D02*
X75238572Y-69120819D01*
X76143333Y-70120819D02*
X75571905Y-70120819D01*
X75857619Y-70120819D02*
X75857619Y-69120819D01*
X75857619Y-69120819D02*
X75762381Y-69263676D01*
X75762381Y-69263676D02*
X75667143Y-69358914D01*
X75667143Y-69358914D02*
X75571905Y-69406533D01*
X157738095Y-84454819D02*
X157738095Y-85264342D01*
X157738095Y-85264342D02*
X157785714Y-85359580D01*
X157785714Y-85359580D02*
X157833333Y-85407200D01*
X157833333Y-85407200D02*
X157928571Y-85454819D01*
X157928571Y-85454819D02*
X158119047Y-85454819D01*
X158119047Y-85454819D02*
X158214285Y-85407200D01*
X158214285Y-85407200D02*
X158261904Y-85359580D01*
X158261904Y-85359580D02*
X158309523Y-85264342D01*
X158309523Y-85264342D02*
X158309523Y-84454819D01*
X158738095Y-84550057D02*
X158785714Y-84502438D01*
X158785714Y-84502438D02*
X158880952Y-84454819D01*
X158880952Y-84454819D02*
X159119047Y-84454819D01*
X159119047Y-84454819D02*
X159214285Y-84502438D01*
X159214285Y-84502438D02*
X159261904Y-84550057D01*
X159261904Y-84550057D02*
X159309523Y-84645295D01*
X159309523Y-84645295D02*
X159309523Y-84740533D01*
X159309523Y-84740533D02*
X159261904Y-84883390D01*
X159261904Y-84883390D02*
X158690476Y-85454819D01*
X158690476Y-85454819D02*
X159309523Y-85454819D01*
X114023333Y-66534819D02*
X113690000Y-66058628D01*
X113451905Y-66534819D02*
X113451905Y-65534819D01*
X113451905Y-65534819D02*
X113832857Y-65534819D01*
X113832857Y-65534819D02*
X113928095Y-65582438D01*
X113928095Y-65582438D02*
X113975714Y-65630057D01*
X113975714Y-65630057D02*
X114023333Y-65725295D01*
X114023333Y-65725295D02*
X114023333Y-65868152D01*
X114023333Y-65868152D02*
X113975714Y-65963390D01*
X113975714Y-65963390D02*
X113928095Y-66011009D01*
X113928095Y-66011009D02*
X113832857Y-66058628D01*
X113832857Y-66058628D02*
X113451905Y-66058628D01*
X114975714Y-66534819D02*
X114404286Y-66534819D01*
X114690000Y-66534819D02*
X114690000Y-65534819D01*
X114690000Y-65534819D02*
X114594762Y-65677676D01*
X114594762Y-65677676D02*
X114499524Y-65772914D01*
X114499524Y-65772914D02*
X114404286Y-65820533D01*
D12*
X110923364Y-160062380D02*
X110559877Y-159698893D01*
X110559877Y-159698893D02*
X110495733Y-159677512D01*
X110495733Y-159677512D02*
X110452969Y-159677512D01*
X110452969Y-159677512D02*
X110388825Y-159698893D01*
X110388825Y-159698893D02*
X110303298Y-159784419D01*
X110303298Y-159784419D02*
X110281917Y-159848564D01*
X110281917Y-159848564D02*
X110281917Y-159891327D01*
X110281917Y-159891327D02*
X110303298Y-159955472D01*
X110303298Y-159955472D02*
X110666785Y-160318959D01*
X109768759Y-160318958D02*
X110025338Y-160062380D01*
X109897049Y-160190669D02*
X110346062Y-160639682D01*
X110346062Y-160639682D02*
X110324680Y-160532774D01*
X110324680Y-160532774D02*
X110324680Y-160447248D01*
X110324680Y-160447248D02*
X110346062Y-160383103D01*
D10*
X142016666Y-75494819D02*
X142016666Y-76209104D01*
X142016666Y-76209104D02*
X141969047Y-76351961D01*
X141969047Y-76351961D02*
X141873809Y-76447200D01*
X141873809Y-76447200D02*
X141730952Y-76494819D01*
X141730952Y-76494819D02*
X141635714Y-76494819D01*
X142445238Y-75590057D02*
X142492857Y-75542438D01*
X142492857Y-75542438D02*
X142588095Y-75494819D01*
X142588095Y-75494819D02*
X142826190Y-75494819D01*
X142826190Y-75494819D02*
X142921428Y-75542438D01*
X142921428Y-75542438D02*
X142969047Y-75590057D01*
X142969047Y-75590057D02*
X143016666Y-75685295D01*
X143016666Y-75685295D02*
X143016666Y-75780533D01*
X143016666Y-75780533D02*
X142969047Y-75923390D01*
X142969047Y-75923390D02*
X142397619Y-76494819D01*
X142397619Y-76494819D02*
X143016666Y-76494819D01*
D11*
X144642857Y-57535471D02*
X144714286Y-57606900D01*
X144714286Y-57606900D02*
X144642857Y-57678328D01*
X144642857Y-57678328D02*
X144571429Y-57606900D01*
X144571429Y-57606900D02*
X144642857Y-57535471D01*
X144642857Y-57535471D02*
X144642857Y-57678328D01*
X144642857Y-56749757D02*
X144714286Y-56821185D01*
X144714286Y-56821185D02*
X144642857Y-56892614D01*
X144642857Y-56892614D02*
X144571429Y-56821185D01*
X144571429Y-56821185D02*
X144642857Y-56749757D01*
X144642857Y-56749757D02*
X144642857Y-56892614D01*
X145214286Y-56178328D02*
X146142858Y-56178328D01*
X146142858Y-56178328D02*
X145642858Y-56749757D01*
X145642858Y-56749757D02*
X145857143Y-56749757D01*
X145857143Y-56749757D02*
X146000001Y-56821185D01*
X146000001Y-56821185D02*
X146071429Y-56892614D01*
X146071429Y-56892614D02*
X146142858Y-57035471D01*
X146142858Y-57035471D02*
X146142858Y-57392614D01*
X146142858Y-57392614D02*
X146071429Y-57535471D01*
X146071429Y-57535471D02*
X146000001Y-57606900D01*
X146000001Y-57606900D02*
X145857143Y-57678328D01*
X145857143Y-57678328D02*
X145428572Y-57678328D01*
X145428572Y-57678328D02*
X145285715Y-57606900D01*
X145285715Y-57606900D02*
X145214286Y-57535471D01*
X147428572Y-57606900D02*
X147285714Y-57678328D01*
X147285714Y-57678328D02*
X147000000Y-57678328D01*
X147000000Y-57678328D02*
X146857143Y-57606900D01*
X146857143Y-57606900D02*
X146785714Y-57535471D01*
X146785714Y-57535471D02*
X146714286Y-57392614D01*
X146714286Y-57392614D02*
X146714286Y-56964042D01*
X146714286Y-56964042D02*
X146785714Y-56821185D01*
X146785714Y-56821185D02*
X146857143Y-56749757D01*
X146857143Y-56749757D02*
X147000000Y-56678328D01*
X147000000Y-56678328D02*
X147285714Y-56678328D01*
X147285714Y-56678328D02*
X147428572Y-56749757D01*
%TO.C,J3*%
D13*
X135652763Y-159675669D02*
X136720492Y-160743395D01*
X132895047Y-156917948D02*
X134309257Y-158332161D01*
X130243396Y-167220496D02*
X136720492Y-160743395D01*
X129175666Y-166152761D02*
X130243396Y-167220496D01*
X126417948Y-163395048D02*
X127832163Y-164809262D01*
%TO.C,J1*%
X126716000Y-110273000D02*
X126716000Y-83095000D01*
X126716000Y-110273000D02*
X99284000Y-110273000D01*
X118140000Y-85822000D02*
X118140000Y-83162000D01*
X110460000Y-85822000D02*
X118140000Y-85822000D01*
X110460000Y-85822000D02*
X110460000Y-83162000D01*
X110460000Y-83162000D02*
X118140000Y-83162000D01*
X109190000Y-85822000D02*
X107860000Y-85822000D01*
X107860000Y-85822000D02*
X107860000Y-84492000D01*
X99284000Y-110273000D02*
X99411000Y-83095000D01*
X99284000Y-105193000D02*
X126716000Y-105193000D01*
X99284000Y-88302000D02*
X126716000Y-88302000D01*
X99284000Y-83095000D02*
X126716000Y-83095000D01*
%TO.C,R3*%
X85660000Y-136630000D02*
X85660000Y-146910000D01*
X85660000Y-146910000D02*
X90960000Y-146910000D01*
X87310000Y-136630000D02*
X85660000Y-136630000D01*
X90960000Y-136630000D02*
X89310000Y-136630000D01*
X90960000Y-146910000D02*
X90960000Y-136630000D01*
X89310000Y-136630000D02*
G75*
G02*
X87310000Y-136630000I-1000000J0D01*
G01*
%TO.C,R2*%
X157350000Y-118360000D02*
X157350000Y-128640000D01*
X157350000Y-128640000D02*
X162650000Y-128640000D01*
X159000000Y-118360000D02*
X157350000Y-118360000D01*
X162650000Y-118360000D02*
X161000000Y-118360000D01*
X162650000Y-128640000D02*
X162650000Y-118360000D01*
X161000000Y-118360000D02*
G75*
G02*
X159000000Y-118360000I-1000000J0D01*
G01*
%TO.C,SW2*%
X68015000Y-98015000D02*
X81985000Y-98015000D01*
X68015000Y-111985000D02*
X68015000Y-98015000D01*
X81985000Y-98015000D02*
X81985000Y-111985000D01*
X81985000Y-111985000D02*
X68015000Y-111985000D01*
%TO.C,SW1*%
X67825000Y-70555000D02*
X81795000Y-70555000D01*
X67825000Y-84525000D02*
X67825000Y-70555000D01*
X81795000Y-70555000D02*
X81795000Y-84525000D01*
X81795000Y-84525000D02*
X67825000Y-84525000D01*
%TO.C,U2*%
X156340000Y-85900000D02*
X156340000Y-87900000D01*
X156340000Y-85900000D02*
X157950000Y-85900000D01*
X156620000Y-98440000D02*
X156620000Y-86190000D01*
X156630000Y-86180000D02*
X162370000Y-86180000D01*
X162380000Y-86180000D02*
X162380000Y-98440000D01*
X162380000Y-98440000D02*
X156620000Y-98440000D01*
%TO.C,R1*%
X111320000Y-68000000D02*
X112270000Y-68000000D01*
X117060000Y-68000000D02*
X116110000Y-68000000D01*
X112270000Y-67080000D02*
X116110000Y-67080000D01*
X116110000Y-68920000D01*
X112270000Y-68920000D01*
X112270000Y-67080000D01*
%TO.C,U1*%
D14*
X115302951Y-150575329D02*
X105424669Y-140697052D01*
X115302950Y-153269407D02*
X103179605Y-165392754D01*
X102730590Y-140697050D02*
X90607246Y-152820395D01*
X98724832Y-163632058D02*
X98007825Y-164343794D01*
D15*
X90607244Y-155514470D02*
X100485529Y-165392751D01*
D14*
X90607244Y-155514470D02*
X100485529Y-165392751D01*
X91647399Y-157982983D02*
X92361580Y-157268804D01*
X97300912Y-164343603D02*
X91647400Y-158690089D01*
X115302951Y-150575329D02*
G75*
G02*
X115302952Y-153269408I-1347043J-1347040D01*
G01*
X102730590Y-140697050D02*
G75*
G02*
X105424667Y-140697053I1347037J-1347039D01*
G01*
X103179605Y-165392754D02*
G75*
G02*
X100485529Y-165392751I-1347036J1347040D01*
G01*
X90607244Y-155514470D02*
G75*
G02*
X90607247Y-152820396I1347043J1347035D01*
G01*
X98007825Y-164343794D02*
G75*
G02*
X97300930Y-164343585I-353343J353727D01*
G01*
X91647400Y-158690089D02*
G75*
G02*
X91647400Y-157982983I353555J353553D01*
G01*
D16*
X102111437Y-165181326D02*
G75*
G02*
X101607435Y-165181326I-252001J0D01*
G01*
X101607435Y-165181326D02*
G75*
G02*
X102111437Y-165181326I252001J0D01*
G01*
D17*
X102297405Y-166611806D02*
G75*
G02*
X101793405Y-166611806I-252000J0D01*
G01*
X101793405Y-166611806D02*
G75*
G02*
X102297405Y-166611806I252000J0D01*
G01*
%TO.C,J2*%
D13*
X140970000Y-77040000D02*
X142350000Y-77040000D01*
X140970000Y-78420000D02*
X140970000Y-77040000D01*
X140970000Y-79690000D02*
X140970000Y-97580000D01*
X140970000Y-79690000D02*
X143730000Y-79690000D01*
X140970000Y-97580000D02*
X143730000Y-97580000D01*
X143730000Y-79690000D02*
X143730000Y-97580000D01*
%TD*%
M02*
