%TF.GenerationSoftware,KiCad,Pcbnew,10.0.6*%
%TF.CreationDate,2026-10-10T12:57:33-04:00*%
%TF.ProjectId,Starbie,53746172-6269-4652-9e6b-696361645f70,rev?*%
%TF.SameCoordinates,Original*%
%TF.FileFunction,Soldermask,Bot*%
%TF.FilePolarity,Negative*%
%FSLAX46Y46*%
G04 Gerber Fmt 4.6, Leading zero omitted, Abs format (unit mm)*
G04 Created by KiCad (PCBNEW 10.0.6) date 2026-10-10 12:57:33*
%MOMM*%
%LPD*%
G01*
G04 APERTURE LIST*
G04 Aperture macros list*
%AMRoundRect*
0 Rectangle with rounded corners*
0 $1 Rounding radius*
0 $2 $3 $4 $5 $6 $7 $8 $9 X,Y pos of 4 corners*
0 Add a 4 corners polygon primitive as box body*
4,1,4,$2,$3,$4,$5,$6,$7,$8,$9,$2,$3,0*
0 Add four circle primitives for the rounded corners*
1,1,$1+$1,$2,$3*
1,1,$1+$1,$4,$5*
1,1,$1+$1,$6,$7*
1,1,$1+$1,$8,$9*
0 Add four rect primitives between the rounded corners*
20,1,$1+$1,$2,$3,$4,$5,0*
20,1,$1+$1,$4,$5,$6,$7,0*
20,1,$1+$1,$6,$7,$8,$9,0*
20,1,$1+$1,$8,$9,$2,$3,0*%
%AMHorizOval*
0 Thick line with rounded ends*
0 $1 width*
0 $2 $3 position (X,Y) of the first rounded end (center of the circle)*
0 $4 $5 position (X,Y) of the second rounded end (center of the circle)*
0 Add line between two ends*
20,1,$1,$2,$3,$4,$5,0*
0 Add two circle primitives to create the rounded ends*
1,1,$1,$2,$3*
1,1,$1,$4,$5*%
G04 Aperture macros list end*
%ADD10HorizOval,1.000000X-0.247487X0.247487X0.247487X-0.247487X0*%
%ADD11O,1.700000X1.700000*%
%ADD12R,1.700000X1.700000*%
%ADD13O,3.800000X2.900000*%
%ADD14RoundRect,0.250000X-0.550000X-0.550000X0.550000X-0.550000X0.550000X0.550000X-0.550000X0.550000X0*%
%ADD15C,1.600000*%
%ADD16C,1.700000*%
%ADD17C,4.000000*%
%ADD18C,2.200000*%
%ADD19R,1.500000X1.500000*%
%ADD20C,1.500000*%
%ADD21C,1.400000*%
%ADD22C,1.524000*%
G04 APERTURE END LIST*
D10*
%TO.C,J3*%
X134620383Y-159010980D03*
X131933381Y-156323982D03*
X128510982Y-165120387D03*
X125823977Y-162433376D03*
%TD*%
D11*
%TO.C,J1*%
X116810000Y-84492000D03*
X114270000Y-84492000D03*
X111730000Y-84492000D03*
D12*
X109190000Y-84492000D03*
D13*
X124176000Y-108241000D03*
X124176000Y-85127000D03*
X101824000Y-108241000D03*
X101824000Y-85127000D03*
%TD*%
D14*
%TO.C,R3*%
X84500000Y-137960000D03*
D15*
X84500000Y-140500000D03*
X84500000Y-143040000D03*
X84500000Y-145580000D03*
X92120000Y-145580000D03*
X92120000Y-143040000D03*
X92120000Y-140500000D03*
X92120000Y-137960000D03*
%TD*%
D14*
%TO.C,R2*%
X156190000Y-119690000D03*
D15*
X156190000Y-122230000D03*
X156190000Y-124770000D03*
X156190000Y-127310000D03*
X163810000Y-127310000D03*
X163810000Y-124770000D03*
X163810000Y-122230000D03*
X163810000Y-119690000D03*
%TD*%
D16*
%TO.C,SW2*%
X69920000Y-105000000D03*
D17*
X75000000Y-105000000D03*
D16*
X80080000Y-105000000D03*
D18*
X77540000Y-99920000D03*
X71190000Y-102460000D03*
%TD*%
D16*
%TO.C,SW1*%
X69730000Y-77540000D03*
D17*
X74810000Y-77540000D03*
D16*
X79890000Y-77540000D03*
D18*
X77350000Y-72460000D03*
X71000000Y-75000000D03*
%TD*%
D19*
%TO.C,U2*%
X159500000Y-88500000D03*
D20*
X159500000Y-91040000D03*
X159500000Y-93580000D03*
X159500000Y-96120000D03*
%TD*%
D21*
%TO.C,R1*%
X110380000Y-68000000D03*
X118000000Y-68000000D03*
%TD*%
D22*
%TO.C,U1*%
X103000002Y-163776305D03*
X104796051Y-161980258D03*
X106592103Y-160184205D03*
X108388156Y-158388154D03*
X110184205Y-156592101D03*
X111980255Y-154796052D03*
X113776305Y-152999998D03*
X102999998Y-142223695D03*
X101203949Y-144019742D03*
X99407897Y-145815795D03*
X97611844Y-147611846D03*
X95815795Y-149407899D03*
X94019745Y-151203948D03*
X92223695Y-153000002D03*
%TD*%
D12*
%TO.C,J2*%
X142350000Y-78420000D03*
D16*
X142350000Y-80960000D03*
X142350000Y-83500000D03*
X142350000Y-86040000D03*
X142350000Y-88580000D03*
X142350000Y-91120000D03*
X142350000Y-93660000D03*
X142350000Y-96200000D03*
%TD*%
M02*
