%TF.GenerationSoftware,KiCad,Pcbnew,10.0.6*%
%TF.CreationDate,2026-10-10T15:54:18-04:00*%
%TF.ProjectId,Starbie,53746172-6269-4652-9e6b-696361645f70,rev?*%
%TF.SameCoordinates,Original*%
%TF.FileFunction,Copper,L1,Top*%
%TF.FilePolarity,Positive*%
%FSLAX46Y46*%
G04 Gerber Fmt 4.6, Leading zero omitted, Abs format (unit mm)*
G04 Created by KiCad (PCBNEW 10.0.6) date 2026-10-10 15:54:18*
%MOMM*%
%LPD*%
G01*
G04 APERTURE LIST*
G04 Aperture macros list*
%AMRoundRect*
0 Rectangle with rounded corners*
0 $1 Rounding radius*
0 $2 $3 $4 $5 $6 $7 $8 $9 X,Y pos of 4 corners*
0 Add a 4 corners polygon primitive as box body*
4,1,4,$2,$3,$4,$5,$6,$7,$8,$9,$2,$3,0*
0 Add four circle primitives for the rounded corners*
1,1,$1+$1,$2,$3*
1,1,$1+$1,$4,$5*
1,1,$1+$1,$6,$7*
1,1,$1+$1,$8,$9*
0 Add four rect primitives between the rounded corners*
20,1,$1+$1,$2,$3,$4,$5,0*
20,1,$1+$1,$4,$5,$6,$7,0*
20,1,$1+$1,$6,$7,$8,$9,0*
20,1,$1+$1,$8,$9,$2,$3,0*%
%AMHorizOval*
0 Thick line with rounded ends*
0 $1 width*
0 $2 $3 position (X,Y) of the first rounded end (center of the circle)*
0 $4 $5 position (X,Y) of the second rounded end (center of the circle)*
0 Add line between two ends*
20,1,$1,$2,$3,$4,$5,0*
0 Add two circle primitives to create the rounded ends*
1,1,$1,$2,$3*
1,1,$1,$4,$5*%
G04 Aperture macros list end*
%TA.AperFunction,ComponentPad*%
%ADD10RoundRect,0.250000X-0.550000X-0.550000X0.550000X-0.550000X0.550000X0.550000X-0.550000X0.550000X0*%
%TD*%
%TA.AperFunction,ComponentPad*%
%ADD11C,1.600000*%
%TD*%
%TA.AperFunction,ComponentPad*%
%ADD12C,2.200000*%
%TD*%
%TA.AperFunction,ComponentPad*%
%ADD13R,1.500000X1.500000*%
%TD*%
%TA.AperFunction,ComponentPad*%
%ADD14C,1.500000*%
%TD*%
%TA.AperFunction,ComponentPad*%
%ADD15R,1.700000X1.700000*%
%TD*%
%TA.AperFunction,ComponentPad*%
%ADD16O,1.700000X1.700000*%
%TD*%
%TA.AperFunction,ComponentPad*%
%ADD17C,1.400000*%
%TD*%
%TA.AperFunction,SMDPad,CuDef*%
%ADD18RoundRect,0.175000X0.318198X-0.565685X0.565685X-0.318198X-0.318198X0.565685X-0.565685X0.318198X0*%
%TD*%
%TA.AperFunction,SMDPad,CuDef*%
%ADD19RoundRect,0.200000X0.282843X-0.565685X0.565685X-0.282843X-0.282843X0.565685X-0.565685X0.282843X0*%
%TD*%
%TA.AperFunction,SMDPad,CuDef*%
%ADD20RoundRect,0.225000X0.247487X-0.565685X0.565685X-0.247487X-0.247487X0.565685X-0.565685X0.247487X0*%
%TD*%
%TA.AperFunction,ComponentPad*%
%ADD21HorizOval,1.000000X-0.247487X0.247487X0.247487X-0.247487X0*%
%TD*%
%TA.AperFunction,ComponentPad*%
%ADD22C,1.524000*%
%TD*%
%TA.AperFunction,SMDPad,CuDef*%
%ADD23RoundRect,0.152400X-1.183131X0.321026X0.321026X-1.183131X1.183131X-0.321026X-0.321026X1.183131X0*%
%TD*%
%TA.AperFunction,SMDPad,CuDef*%
%ADD24RoundRect,0.152400X1.183131X-0.321026X-0.321026X1.183131X-1.183131X0.321026X0.321026X-1.183131X0*%
%TD*%
%TA.AperFunction,ComponentPad*%
%ADD25C,1.700000*%
%TD*%
%TA.AperFunction,Conductor*%
%ADD26C,0.200000*%
%TD*%
G04 APERTURE END LIST*
D10*
%TO.P,R3,1*%
%TO.N,GND*%
X84500000Y-137960000D03*
D11*
%TO.P,R3,2*%
%TO.N,/ng*%
X84500000Y-140500000D03*
%TO.P,R3,3*%
%TO.N,N/C*%
X84500000Y-143040000D03*
%TO.P,R3,4*%
X84500000Y-145580000D03*
%TO.P,R3,5*%
X92120000Y-145580000D03*
%TO.P,R3,6*%
X92120000Y-143040000D03*
%TO.P,R3,7*%
X92120000Y-140500000D03*
%TO.P,R3,8*%
X92120000Y-137960000D03*
%TD*%
D12*
%TO.P,SW2,1,1_1*%
%TO.N,/GPIO3*%
X77540000Y-99920000D03*
%TO.P,SW2,2,2_2*%
%TO.N,GND*%
X71190000Y-102460000D03*
%TD*%
%TO.P,SW1,1,1_1*%
%TO.N,/GPI02*%
X77350000Y-72460000D03*
%TO.P,SW1,2,2_2*%
%TO.N,GND*%
X71000000Y-75000000D03*
%TD*%
D10*
%TO.P,R2,1*%
%TO.N,GND*%
X156190000Y-119690000D03*
D11*
%TO.P,R2,2*%
%TO.N,/groundi*%
X156190000Y-122230000D03*
%TO.P,R2,3*%
%TO.N,N/C*%
X156190000Y-124770000D03*
%TO.P,R2,4*%
X156190000Y-127310000D03*
%TO.P,R2,5*%
X163810000Y-127310000D03*
%TO.P,R2,6*%
X163810000Y-124770000D03*
%TO.P,R2,7*%
X163810000Y-122230000D03*
%TO.P,R2,8*%
X163810000Y-119690000D03*
%TD*%
D13*
%TO.P,U2,1,VDD_1*%
%TO.N,+3.3V*%
X159500000Y-88500000D03*
D14*
%TO.P,U2,2,DATA_2*%
%TO.N,/DHT11 DATA*%
X159500000Y-91040000D03*
%TO.P,U2,3,NC_3*%
%TO.N,unconnected-(U2-NC-Pad3)*%
X159500000Y-93580000D03*
%TO.P,U2,4,GND_4*%
%TO.N,GND*%
X159500000Y-96120000D03*
%TD*%
D15*
%TO.P,J1,1,Pin_1_1*%
%TO.N,GND*%
X109190000Y-84492000D03*
D16*
%TO.P,J1,2,Pin_2_2*%
%TO.N,+3.3V*%
X111730000Y-84492000D03*
%TO.P,J1,3,Pin_3_3*%
%TO.N,/SCL*%
X114270000Y-84492000D03*
%TO.P,J1,4,Pin_4_4*%
%TO.N,/SDA*%
X116810000Y-84492000D03*
%TD*%
D17*
%TO.P,R1,1*%
%TO.N,+3.3V*%
X110380000Y-68000000D03*
%TO.P,R1,2*%
%TO.N,/DHT11 DATA*%
X118000000Y-68000000D03*
%TD*%
D18*
%TO.P,J3,A5,CC1_A5*%
%TO.N,/ng*%
X128397849Y-159604956D03*
D19*
%TO.P,J3,A9,VBUS_A9*%
%TO.N,+5V*%
X129826200Y-158176600D03*
D20*
%TO.P,J3,A12,GND_A12*%
%TO.N,GND*%
X130695944Y-157306857D03*
D18*
%TO.P,J3,B5,CC2_B5*%
%TO.N,/groundi*%
X129104957Y-158897846D03*
D19*
%TO.P,J3,B9,VBUS_B9*%
%TO.N,+5V*%
X127676598Y-160326199D03*
D20*
%TO.P,J3,B12,GND_B12*%
%TO.N,GND*%
X126806857Y-161195949D03*
D21*
%TO.P,J3,SH,SHIELD_SH*%
X128510982Y-165120387D03*
X125823978Y-162433376D03*
X131933381Y-156323983D03*
X134620382Y-159010980D03*
%TD*%
D22*
%TO.P,U1,1,D0_1*%
%TO.N,unconnected-(U1-D0-Pad1)_1*%
X103000002Y-163776305D03*
D23*
%TO.N,unconnected-(U1-D0-Pad1)*%
X103590435Y-164366742D03*
%TO.P,U1,2,D1_2*%
%TO.N,/DHT11 DATA*%
X105386486Y-162570692D03*
D22*
X104796051Y-161980258D03*
D23*
%TO.P,U1,3,D2_3*%
%TO.N,/GPI02*%
X107182537Y-160774639D03*
D22*
X106592102Y-160184205D03*
%TO.P,U1,4,D3_4*%
%TO.N,/GPIO3*%
X108388156Y-158388154D03*
D23*
X108978585Y-158978588D03*
D22*
%TO.P,U1,5,D4_5*%
%TO.N,/SCL*%
X110184205Y-156592101D03*
D23*
X110774639Y-157182537D03*
%TO.P,U1,6,D5_6*%
%TO.N,/SDA*%
X112570690Y-155386485D03*
D22*
X111980255Y-154796052D03*
D23*
%TO.P,U1,7,D6_7*%
%TO.N,unconnected-(U1-D6-Pad7)_1*%
X114366740Y-153590433D03*
D22*
%TO.N,unconnected-(U1-D6-Pad7)*%
X113776305Y-152999998D03*
D24*
%TO.P,U1,8,D7_8*%
%TO.N,/pair2*%
X102409565Y-141633258D03*
D22*
X102999998Y-142223695D03*
%TO.P,U1,9,D8_9*%
%TO.N,/pair1*%
X101203949Y-144019742D03*
D24*
X100613514Y-143429308D03*
D22*
%TO.P,U1,10,D9/BOOT_10*%
%TO.N,unconnected-(U1-D9{slash}BOOT-Pad10)*%
X99407898Y-145815795D03*
D24*
%TO.N,unconnected-(U1-D9{slash}BOOT-Pad10)_1*%
X98817463Y-145225361D03*
%TO.P,U1,11,D10_11*%
%TO.N,unconnected-(U1-D10-Pad11)_1*%
X97021415Y-147021412D03*
D22*
%TO.N,unconnected-(U1-D10-Pad11)*%
X97611844Y-147611846D03*
D24*
%TO.P,U1,12,3V3_OUT_12*%
%TO.N,+3.3V*%
X95225361Y-148817463D03*
D22*
X95815795Y-149407899D03*
%TO.P,U1,13,GND_13*%
%TO.N,GND*%
X94019745Y-151203948D03*
D24*
X93429310Y-150613515D03*
D22*
%TO.P,U1,14,VBUS_14*%
%TO.N,+5V*%
X92223695Y-153000002D03*
D24*
X91633260Y-152409567D03*
%TD*%
D15*
%TO.P,J2,1,Pin_1_1*%
%TO.N,+3.3V*%
X142350000Y-78420000D03*
D25*
%TO.P,J2,2,Pin_2_2*%
%TO.N,GND*%
X142350000Y-80960000D03*
%TO.P,J2,3,Pin_3_3*%
%TO.N,/SCL*%
X142350000Y-83500000D03*
%TO.P,J2,4,Pin_4_4*%
%TO.N,/SDA*%
X142350000Y-86040000D03*
%TO.P,J2,5,Pin_5_5*%
%TO.N,unconnected-(J2-Pin_5-Pad5)*%
X142350000Y-88580000D03*
%TO.P,J2,6,Pin_6_6*%
%TO.N,unconnected-(J2-Pin_6-Pad6)*%
X142350000Y-91120000D03*
%TO.P,J2,7,Pin_7_7*%
%TO.N,unconnected-(J2-Pin_7-Pad7)*%
X142350000Y-93660000D03*
%TO.P,J2,8,Pin_8_8*%
%TO.N,unconnected-(J2-Pin_8-Pad8)*%
X142350000Y-96200000D03*
%TD*%
%TO.N,/GPIO3*%
D26*
X99547949Y-124242000D02*
X115243686Y-124242000D01*
X101062000Y-123442000D02*
X77540000Y-99920000D01*
X88769325Y-135020624D02*
X99547949Y-124242000D01*
X83000000Y-137500000D02*
X85479376Y-135020624D01*
X108388156Y-158388154D02*
X108388156Y-156886257D01*
X116940000Y-122545686D02*
X116940000Y-122214314D01*
X108388156Y-156886257D02*
X95641899Y-144140000D01*
X85479376Y-135020624D02*
X88769325Y-135020624D01*
X112938000Y-123442000D02*
X101062000Y-123442000D01*
X114400000Y-121980000D02*
X112938000Y-123442000D01*
X115243686Y-124242000D02*
X116940000Y-122545686D01*
X116940000Y-122214314D02*
X116705686Y-121980000D01*
X84044365Y-144140000D02*
X83000000Y-143095635D01*
X95641899Y-144140000D02*
X84044365Y-144140000D01*
X116705686Y-121980000D02*
X114400000Y-121980000D01*
X83000000Y-143095635D02*
X83000000Y-137500000D01*
%TO.N,GND*%
X128624122Y-161500000D02*
X131500000Y-158624122D01*
X126806855Y-161450502D02*
X126806856Y-161195943D01*
X125823979Y-162433382D02*
X126806855Y-161450502D01*
X109190000Y-84492000D02*
X114682000Y-79000000D01*
X140390000Y-79000000D02*
X142350000Y-80960000D01*
X126806857Y-161195949D02*
X127110908Y-161500000D01*
X127110908Y-161500000D02*
X128624122Y-161500000D01*
X131500000Y-158624122D02*
X131500000Y-158110913D01*
X130950503Y-157306854D02*
X130695947Y-157306860D01*
X131933378Y-156323978D02*
X130950503Y-157306854D01*
X114682000Y-79000000D02*
X140390000Y-79000000D01*
X131500000Y-158110913D02*
X130695944Y-157306857D01*
%TO.N,/GPI02*%
X76898268Y-139533903D02*
X97548570Y-160184205D01*
X77350000Y-72460000D02*
X77350000Y-65350000D01*
X64500000Y-94000000D02*
X64500000Y-115500000D01*
X60500000Y-90000000D02*
X64500000Y-94000000D01*
X76898268Y-129673609D02*
X76898268Y-139533903D01*
X60500000Y-61500000D02*
X60500000Y-90000000D01*
X73500000Y-61500000D02*
X60500000Y-61500000D01*
X97548570Y-160184205D02*
X106592103Y-160184205D01*
X97500000Y-123842000D02*
X92655675Y-128686325D01*
X64500000Y-115500000D02*
X72842000Y-123842000D01*
X115078000Y-123842000D02*
X116540000Y-122380000D01*
X77885552Y-128686325D02*
X76898268Y-129673609D01*
X92655675Y-128686325D02*
X77885552Y-128686325D01*
X77350000Y-65350000D02*
X73500000Y-61500000D01*
X72842000Y-123842000D02*
X97500000Y-123842000D01*
X97500000Y-123842000D02*
X115078000Y-123842000D01*
%TO.N,+3.3V*%
X142350000Y-78420000D02*
X120800000Y-78420000D01*
X159500000Y-88500000D02*
X155500000Y-88500000D01*
X120800000Y-78420000D02*
X110380000Y-68000000D01*
X155500000Y-88500000D02*
X145420000Y-78420000D01*
X145420000Y-78420000D02*
X142350000Y-78420000D01*
%TO.N,/SCL*%
X111460000Y-87302000D02*
X111460000Y-98894315D01*
X76498268Y-128063953D02*
X76498268Y-139699589D01*
X60334315Y-61100000D02*
X60100000Y-61334315D01*
X109152531Y-162413155D02*
X112000000Y-159565686D01*
X114270000Y-84492000D02*
X111460000Y-87302000D01*
X76498268Y-139699589D02*
X97422779Y-160624100D01*
X111460000Y-98894315D02*
X73665685Y-61100000D01*
X107319157Y-162413155D02*
X109152531Y-162413155D01*
X116112000Y-82650000D02*
X114270000Y-84492000D01*
X112000000Y-159565686D02*
X112000000Y-158407898D01*
X76498268Y-129507924D02*
X76498268Y-139699589D01*
X97422779Y-160624100D02*
X105530103Y-160624100D01*
X105530103Y-160624100D02*
X107319157Y-162413155D01*
X112000000Y-158407898D02*
X110774639Y-157182537D01*
X62500000Y-106000000D02*
X62500000Y-114065685D01*
X60100000Y-103600000D02*
X62500000Y-106000000D01*
X60100000Y-61334315D02*
X60100000Y-103600000D01*
X60100000Y-61334315D02*
X60100000Y-113109656D01*
X60100000Y-113109656D02*
X76498268Y-129507924D01*
X62500000Y-114065685D02*
X76498268Y-128063953D01*
X73665685Y-61100000D02*
X60334315Y-61100000D01*
X141500000Y-82650000D02*
X116112000Y-82650000D01*
X142350000Y-83500000D02*
X141500000Y-82650000D01*
%TO.N,/SDA*%
X119409000Y-87091000D02*
X116810000Y-84492000D01*
X119665685Y-87347685D02*
X119665685Y-132100000D01*
X92255635Y-132100000D02*
X84955635Y-139400000D01*
X97282312Y-141600000D02*
X110478364Y-154796052D01*
X84955635Y-139400000D02*
X84044365Y-139400000D01*
X141213000Y-87177000D02*
X119495000Y-87177000D01*
X84044365Y-139400000D02*
X83400000Y-140044365D01*
X83400000Y-140044365D02*
X83400000Y-140955635D01*
X119409000Y-87091000D02*
X119665685Y-87347685D01*
X83400000Y-140955635D02*
X84044365Y-141600000D01*
X119665685Y-132100000D02*
X92255635Y-132100000D01*
X142350000Y-86040000D02*
X141213000Y-87177000D01*
X110478364Y-154796052D02*
X111980255Y-154796052D01*
X84044365Y-141600000D02*
X97282312Y-141600000D01*
X119495000Y-87177000D02*
X119409000Y-87091000D01*
%TO.N,+5V*%
X110624100Y-155530101D02*
X109744310Y-155530101D01*
X111000000Y-159498103D02*
X111000000Y-160000000D01*
X129826202Y-158176600D02*
X130149072Y-158499463D01*
X109122205Y-157141787D02*
X111000000Y-159019582D01*
X108821053Y-160911259D02*
X100909796Y-153000002D01*
X109122205Y-154877795D02*
X109122205Y-157620308D01*
X130149069Y-159409367D02*
X128666546Y-160891889D01*
X110088741Y-160911259D02*
X108821053Y-160911259D01*
X109616626Y-154500000D02*
X109500000Y-154500000D01*
X130149072Y-158499463D02*
X130149069Y-159409367D01*
X111000000Y-160000000D02*
X110088741Y-160911259D01*
X129826203Y-158629145D02*
X129826202Y-158176600D01*
X109744310Y-155530101D02*
X109122205Y-156152206D01*
X128666546Y-160891889D02*
X128242286Y-160891889D01*
X114047000Y-158953001D02*
X110624100Y-155530101D01*
X126303400Y-158953001D02*
X114047000Y-158953001D01*
X111000000Y-159019582D02*
X111000000Y-159498103D01*
X109122205Y-156152206D02*
X109122205Y-157141787D01*
X127676598Y-160326199D02*
X126303400Y-158953001D01*
X128242286Y-160891889D02*
X127676599Y-160326204D01*
X100909796Y-153000002D02*
X92223695Y-153000002D01*
X109500000Y-154500000D02*
X109122205Y-154877795D01*
X109122205Y-157620308D02*
X111000000Y-159498103D01*
%TO.N,/groundi*%
X124750000Y-154542889D02*
X124750000Y-132750000D01*
X120558000Y-155942000D02*
X120558000Y-136942000D01*
X129104957Y-158897846D02*
X124750000Y-154542889D01*
X135270000Y-122230000D02*
X156190000Y-122230000D01*
X124750000Y-132750000D02*
X135270000Y-122230000D01*
X120558000Y-136942000D02*
X124750000Y-132750000D01*
%TO.N,/ng*%
X120958000Y-137607685D02*
X120958000Y-156107685D01*
X119500000Y-132500000D02*
X96000000Y-132500000D01*
X120392315Y-156342000D02*
X120142000Y-156091685D01*
X120723685Y-156342000D02*
X120392315Y-156342000D01*
X88000000Y-140500000D02*
X84500000Y-140500000D01*
X122020000Y-153227107D02*
X122020000Y-137454315D01*
X128397849Y-159604956D02*
X122020000Y-153227107D01*
X120142000Y-156091685D02*
X120142000Y-133142000D01*
X121565685Y-137000000D02*
X120958000Y-137607685D01*
X122020000Y-137454315D02*
X121565685Y-137000000D01*
X120958000Y-156107685D02*
X120723685Y-156342000D01*
X120142000Y-133142000D02*
X119500000Y-132500000D01*
X96000000Y-132500000D02*
X88000000Y-140500000D01*
%TD*%
M02*
